<svg width="198" height="87" viewBox="0 0 198 87" fill="none" xmlns="http://www.w3.org/2000/svg">
<path d="M2.18215 10.4863C0.692887 11.2124 0.0742553 13.0084 0.800392 14.4976C1.52653 15.9869 3.32246 16.6055 4.81172 15.8794L2.18215 10.4863ZM104.317 39.668L101.345 40.0766L104.317 39.668ZM65.4629 32.0364L62.7717 30.7106L65.4629 32.0364ZM197.212 56.7676L187.699 23.4585L163.609 48.3519L197.212 56.7676ZM4.81172 15.8794C16.9031 9.9838 39.919 4.89125 60.6016 7.08143C70.9106 8.1731 80.3826 11.0486 87.6024 16.2932C94.7334 21.4736 99.8326 29.0765 101.345 40.0766L107.289 39.2594C105.553 26.6313 99.5743 17.5741 91.1287 11.4389C82.7718 5.36811 72.1683 2.27273 61.2334 1.11479C39.4282 -1.19427 15.2825 4.0988 2.18215 10.4863L4.81172 15.8794ZM101.345 40.0766C103.821 58.0893 99.2945 68.7941 93.3975 74.5681C87.3877 80.4526 79.6445 81.5906 74.8115 80.0507L72.9899 85.7675C80.0573 88.0194 90.0888 86.2051 97.5953 78.8552C105.215 71.3948 109.946 58.583 107.289 39.2594L101.345 40.0766ZM74.8115 80.0507C69.7619 78.4418 64.6056 74.1743 62.3767 66.7844C60.1387 59.3642 60.7463 48.3989 68.154 33.3622L62.7717 30.7106C54.9405 46.6068 53.8168 59.1819 56.6323 68.5169C59.4569 77.8821 66.139 83.5846 72.9899 85.7675L74.8115 80.0507ZM68.154 33.3622C75.8565 17.7273 92.0255 10.9995 112.003 12.4643C132.011 13.9315 155.321 23.6605 175.919 40.3201L179.692 35.655C158.35 18.3932 133.91 8.0546 112.442 6.4804C90.9425 4.90395 71.91 12.1612 62.7717 30.7106L68.154 33.3622Z" fill="#1BA456"/>
</svg>
